PathFileType        4      (X/Y/Z)      C:\Users\u0101727\OneDrive - KU Leuven\reference_data\TRC\gait_27.trc         																																																																																																																																																																																		
DataRate	CameraRate	NumFrames	NumMarkers	Units	OrigDataRate	OrigDataStartFrame	OrigNumFrames																																																																																																																																																																											
100	100	4	59	m	100	393	448																																																																																																																																																																											
Frame#	Time	LASI			RASI			LKNE			LKNE_med			LTHI1			LTHI2			LTHI3			LANK			LTIB1			foot_l5			foot_l6			foot_l7			foot_l8			foot_l9			RTHI3			RANK			RTIB2			RTIB3			Foot_r3			Foot_r5			Foot_r6			Foot_r7			Foot_r9			RSHO			LSHO			CLAV			rad_l2			hum_r2			RELB			rad_r2			RW2			RW1			RH			hum_l2			RTHI2			RTIB1			LW1			LH			RKNE			LW2			LANK_med			Foot_r4			Foot_r1			foot_l3			LTIB2			RTHI1			LTIB3			foot_l10			LPSI			foot_l1			Foot_r8			foot_l2			foot_l4			RPSI			Foot_r2			RKNE_med			RANK_med			Foot_r10			LELB		
		X1	Y1	Z1	X2	Y2	Z2	X3	Y3	Z3	X4	Y4	Z4	X5	Y5	Z5	X6	Y6	Z6	X7	Y7	Z7	X8	Y8	Z8	X9	Y9	Z9	X10	Y10	Z10	X11	Y11	Z11	X12	Y12	Z12	X13	Y13	Z13	X14	Y14	Z14	X15	Y15	Z15	X16	Y16	Z16	X17	Y17	Z17	X18	Y18	Z18	X19	Y19	Z19	X20	Y20	Z20	X21	Y21	Z21	X22	Y22	Z22	X23	Y23	Z23	X24	Y24	Z24	X25	Y25	Z25	X26	Y26	Z26	X27	Y27	Z27	X28	Y28	Z28	X29	Y29	Z29	X30	Y30	Z30	X31	Y31	Z31	X32	Y32	Z32	X33	Y33	Z33	X34	Y34	Z34	X35	Y35	Z35	X36	Y36	Z36	X37	Y37	Z37	X38	Y38	Z38	X39	Y39	Z39	X40	Y40	Z40	X41	Y41	Z41	X42	Y42	Z42	X43	Y43	Z43	X44	Y44	Z44	X45	Y45	Z45	X46	Y46	Z46	X47	Y47	Z47	X48	Y48	Z48	X49	Y49	Z49	X50	Y50	Z50	X51	Y51	Z51	X52	Y52	Z52	X53	Y53	Z53	X54	Y54	Z54	X55	Y55	Z55	X56	Y56	Z56	X57	Y57	Z57	X58	Y58	Z58	X59	Y59	Z59
393	3.93	1.7954	0.90199	-0.2665	1.8077	0.90637	-0.011266	1.6364	0.42559	-0.25051	NaN	NaN	NaN	1.7772	0.62727	-0.25502	1.7284	0.63607	-0.30434	1.7431	0.58248	-0.27768	1.4673	0.069903	-0.22907	1.5683	0.24632	-0.24336	1.5706	0.0057551	-0.23723	1.5944	0.01517	-0.18991	1.6233	0.010941	-0.15111	1.5905	0.015542	-0.13871	1.5294	0.030872	-0.14125	1.8202	0.67396	0.064459	2.0119	0.06256	-0.032697	1.9027	0.2446	0.0075245	1.9549	0.22317	0.0023256	2.0319	0.043503	-0.040786	2.1349	0.063735	-0.0070864	2.1621	0.09135	-0.046691	2.1924	0.10848	-0.081099	2.111	0.09101	-0.097762	1.6824	1.3485	0.043773	1.729	1.3574	-0.30062	1.7876	1.3241	-0.1359	1.8223	0.97295	-0.39718	1.6433	1.1986	0.077057	1.6082	1.0529	0.096072	1.6322	0.91809	0.17019	1.6123	0.838	0.19628	1.6786	0.82948	0.18355	1.6457	0.78945	0.22275	1.7268	1.2026	-0.36071	NaN	NaN	NaN	1.9675	0.27652	9.95E-04	1.9263	0.8939	-0.36817	1.9491	0.84059	-0.41425	1.9154	0.4414	-0.0078216	NaN	NaN	NaN	1.4625	0.087816	-0.14562	2.0696	0.041657	-0.029207	NaN	NaN	NaN	1.467	0.03922	-0.21958	1.5104	0.26387	-0.27138	1.8308	0.72958	0.055872	1.5259	0.20837	-0.2555	NaN	NaN	NaN	1.6267	0.9269	-0.14879	1.4046	0.067657	-0.1923	2.1655	0.091732	-0.099354	1.3942	0.035577	-0.19383	1.4978	0.01943	-0.2244	NaN	NaN	NaN	1.9821	0.0089946	-0.072726	NaN	NaN	NaN	2.0221	0.092144	-0.11373	NaN	NaN	NaN	NaN	NaN	NaN
394	3.94	1.8084	0.9	-0.26598	1.8209	0.90421	-0.010821	1.6444	0.42497	-0.25018	NaN	NaN	NaN	1.7878	0.62526	-0.25445	1.739	0.63467	-0.30355	1.7534	0.58109	-0.27709	1.4686	0.072107	-0.22938	1.573	0.24688	-0.24334	1.5707	0.005807	-0.23717	1.5945	0.01518	-0.18991	1.6234	0.010988	-0.15108	1.5902	0.015243	-0.1386	1.5298	0.032059	-0.14119	1.8328	0.67192	0.06631	2.0307	0.063138	-0.033704	1.9198	0.24347	0.0069857	1.973	0.22335	0.0017527	2.052	0.044966	-0.041017	2.1535	0.064902	-0.008876	2.1797	0.092909	-0.048917	2.2104	0.11077	-0.083382	2.1288	0.092636	-0.099415	1.6951	1.3463	0.044804	1.7415	1.3555	-0.29975	1.8001	1.322	-0.13493	1.836	0.97183	-0.39601	1.6557	1.1964	0.077771	1.6206	1.0505	0.096746	1.6442	0.91582	0.17109	1.6244	0.83564	0.1971	1.6911	0.82749	0.18463	1.6575	0.78707	0.22345	1.7397	1.2007	-0.35969	NaN	NaN	NaN	1.9846	0.27672	-5.88E-05	1.9406	0.89376	-0.36699	1.9641	0.84107	-0.41307	1.929	0.44051	-0.0075855	NaN	NaN	NaN	1.464	0.090484	-0.14584	2.0883	0.041825	-0.030838	NaN	NaN	NaN	1.4679	0.041645	-0.21983	1.5144	0.26488	-0.27095	1.8443	0.72796	0.057319	1.5298	0.20978	-0.25549	NaN	NaN	NaN	1.6399	0.92492	-0.14794	1.406	0.071156	-0.19271	2.1831	0.094022	-0.10116	1.3949	0.039292	-0.19414	1.4981	0.020701	-0.22471	NaN	NaN	NaN	2.0004	0.0084626	-0.074238	NaN	NaN	NaN	2.0398	0.092868	-0.11455	NaN	NaN	NaN	NaN	NaN	NaN
395	3.95	1.8216	0.89825	-0.26538	1.8342	0.90252	-0.010479	1.6531	0.42423	-0.24988	NaN	NaN	NaN	1.799	0.62333	-0.25405	1.75	0.63347	-0.30285	1.7636	0.57922	-0.27636	1.4702	0.074475	-0.2295	1.5782	0.24741	-0.24351	1.5709	0.0058672	-0.23706	1.5946	0.015189	-0.18984	1.6235	0.010979	-0.15112	1.5904	0.015052	-0.13869	1.5306	0.033316	-0.14138	1.8466	0.67011	0.0674	2.0456	0.062182	-0.035073	1.9353	0.243	0.0068053	1.988	0.22234	5.35E-05	2.0651	0.04254	-0.043712	2.1686	0.063348	-0.010786	2.1948	0.092056	-0.050772	2.2249	0.11007	-0.085609	2.1432	0.091736	-0.10105	1.7076	1.3441	0.045756	1.7537	1.3536	-0.29867	1.8129	1.32	-0.13411	1.8495	0.97064	-0.39494	1.6682	1.194	0.078624	1.633	1.0483	0.097441	1.6565	0.91344	0.17192	1.6372	0.83346	0.19789	1.7037	0.82535	0.1858	1.6703	0.78515	0.22447	1.7524	1.1988	-0.35868	NaN	NaN	NaN	1.9999	0.27597	-0.0013775	1.9545	0.89341	-0.36579	1.9785	0.84128	-0.41211	1.9435	0.43965	-0.0074025	NaN	NaN	NaN	1.4661	0.093103	-0.14609	2.1036	0.04064	-0.032434	NaN	NaN	NaN	1.4689	0.044023	-0.22012	1.5204	0.26739	-0.27112	1.8573	0.7259	0.058292	1.5341	0.21136	-0.25551	NaN	NaN	NaN	1.6531	0.92292	-0.14679	1.4075	0.074722	-0.19292	2.1978	0.093885	-0.103	1.3959	0.043108	-0.19448	1.4987	0.022501	-0.22496	NaN	NaN	NaN	2.0155	0.0076213	-0.075343	NaN	NaN	NaN	2.0543	0.091987	-0.11604	NaN	NaN	NaN	NaN	NaN	NaN
396	3.96	1.8352	0.89649	-0.26477	1.8476	0.90106	-0.0099486	1.6625	0.42332	-0.24965	NaN	NaN	NaN	1.8107	0.62142	-0.25379	1.7615	0.63227	-0.30217	1.7754	0.57809	-0.27622	1.4722	0.077405	-0.23005	1.5835	0.24769	-0.24367	1.5711	0.0059835	-0.23701	1.5948	0.015158	-0.1898	1.6237	0.011076	-0.15105	1.5904	0.015045	-0.13863	1.5312	0.03447	-0.14158	1.8609	0.66879	0.067682	2.0564	0.059443	-0.036849	1.9484	0.24145	0.005151	NaN	NaN	NaN	2.0791	0.042408	-0.043823	2.1805	0.060903	-0.012592	2.2066	0.089196	-0.052503	2.2369	0.10689	-0.087352	2.1551	0.089047	-0.10277	1.7204	1.3419	0.046789	1.7661	1.3517	-0.29759	1.8257	1.3182	-0.13316	1.8623	0.96937	-0.39382	1.6809	1.1919	0.07955	1.6457	1.046	0.098232	1.6692	0.91116	0.17274	1.6502	0.83105	0.19833	1.7168	0.82337	0.18679	1.6833	0.78299	0.22531	1.7647	1.197	-0.35749	NaN	NaN	NaN	2.0133	0.27415	-0.0026763	1.9679	0.89291	-0.36479	1.9924	0.84111	-0.41118	1.9583	0.43884	-0.0076914	NaN	NaN	NaN	1.4684	0.095908	-0.14641	2.1153	0.038506	-0.033921	NaN	NaN	NaN	1.4704	0.047381	-0.22036	1.5264	0.26895	-0.27102	1.8713	0.72508	0.059995	1.5388	0.21284	-0.25561	NaN	NaN	NaN	1.6666	0.92115	-0.14586	1.4095	0.078943	-0.19335	2.21	0.091815	-0.10408	1.3973	0.047693	-0.1949	1.4996	0.024596	-0.22519	NaN	NaN	NaN	2.0269	0.005509	-0.07757	NaN	NaN	NaN	2.0662	0.089987	-0.11763	NaN	NaN	NaN	NaN	NaN	NaN
